<svg xmlns="http://www.w3.org/2000/svg" width="450" height="450" viewBox="0 0 450 450">
  <defs>
    <style>
      .cls-1 {
        fill: #f2be00;
      }

      .cls-2, .cls-3 {
        stroke: none;
      }

      .cls-3 {
        fill: #707070;
      }
    </style>
  </defs>
  <g id="Group_2" data-name="Group 2" transform="translate(40 -159)">
    <circle id="Ellipse_1" data-name="Ellipse 1" class="cls-1" cx="225" cy="225" r="225" transform="translate(-40 159)"/>
    <g id="Intersection_1" data-name="Intersection 1" transform="translate(-40 159)">
      <path class="cls-2" d="M 276.7001037597656 443.51806640625 L 276.7001037597656 411.4277648925781 L 276.7001037597656 410.9277648925781 L 276.2001037597656 410.9277648925781 L 173.7998962402344 410.9277648925781 L 173.2998962402344 410.9277648925781 L 173.2998962402344 411.4277648925781 L 173.2998962402344 443.51806640625 C 169.3503570556641 442.5871276855469 165.3856048583984 441.5372619628906 161.5001068115234 440.3935546875 L 161.5001068115234 9.606406211853027 C 165.3859710693359 8.462589263916016 169.3504180908203 7.412854671478271 173.2991333007812 6.482087135314941 L 173.2998962402344 38.57311248779297 L 173.2998962402344 39.07311248779297 L 173.7998962402344 39.07311248779297 L 276.2001037597656 39.07311248779297 L 276.7001037597656 39.07311248779297 L 276.7001037597656 38.57311248779297 L 276.7001037597656 6.481925010681152 C 280.6492309570312 7.412789821624756 284.6139526367188 8.462587356567383 288.4998779296875 9.60640811920166 L 288.4998779296875 440.3935241699219 C 284.6141967773438 441.5373229980469 280.6494445800781 442.587158203125 276.7001037597656 443.51806640625 Z M 173.2998962402344 320.9277648925781 L 173.2998962402344 321.4277648925781 L 173.2998962402344 398.5713195800781 L 173.2998962402344 399.0713195800781 L 173.7998962402344 399.0713195800781 L 276.2001037597656 399.0713195800781 L 276.7001037597656 399.0713195800781 L 276.7001037597656 398.5713195800781 L 276.7001037597656 321.4277648925781 L 276.7001037597656 320.9277648925781 L 276.2001037597656 320.9277648925781 L 173.7998962402344 320.9277648925781 L 173.2998962402344 320.9277648925781 Z M 173.2998962402344 230.9287261962891 L 173.2998962402344 231.4287261962891 L 173.2998962402344 308.5713195800781 L 173.2998962402344 309.0713195800781 L 173.7998962402344 309.0713195800781 L 276.2001037597656 309.0713195800781 L 276.7001037597656 309.0713195800781 L 276.7001037597656 308.5713195800781 L 276.7001037597656 231.4287261962891 L 276.7001037597656 230.9287261962891 L 276.2001037597656 230.9287261962891 L 173.7998962402344 230.9287261962891 L 173.2998962402344 230.9287261962891 Z M 173.2998962402344 140.9296112060547 L 173.2998962402344 141.4296112060547 L 173.2998962402344 218.5712738037109 L 173.2998962402344 219.0712738037109 L 173.7998962402344 219.0712738037109 L 276.2001037597656 219.0712738037109 L 276.7001037597656 219.0712738037109 L 276.7001037597656 218.5712738037109 L 276.7001037597656 141.4296112060547 L 276.7001037597656 140.9296112060547 L 276.2001037597656 140.9296112060547 L 173.7998962402344 140.9296112060547 L 173.2998962402344 140.9296112060547 Z M 173.2998962402344 50.93050003051758 L 173.2998962402344 51.43050003051758 L 173.2998962402344 128.5713348388672 L 173.2998962402344 129.0713348388672 L 173.7998962402344 129.0713348388672 L 276.2001037597656 129.0713348388672 L 276.7001037597656 129.0713348388672 L 276.7001037597656 128.5713348388672 L 276.7001037597656 51.43050003051758 L 276.7001037597656 50.93050003051758 L 276.2001037597656 50.93050003051758 L 173.7998962402344 50.93050003051758 L 173.2998962402344 50.93050003051758 Z"/>
      <path class="cls-3" d="M 277.2001037597656 442.8855895996094 C 280.8155517578125 442.0223999023438 284.4395446777344 441.0606079101562 287.9998779296875 440.0191650390625 L 287.9998779296875 9.980805397033691 C 284.4395751953125 8.939427375793457 280.8151245117188 7.977460861206055 277.2001037597656 7.114409446716309 L 277.2001037597656 38.57311248779297 L 277.2001037597656 39.57311248779297 L 276.2001037597656 39.57311248779297 L 173.7998962402344 39.57311248779297 L 172.7998962402344 39.57311248779297 L 172.7998962402344 38.57311248779297 L 172.7991485595703 7.114584445953369 C 169.1845245361328 7.977581024169922 165.5603485107422 8.939435005187988 162.0001068115234 9.980802536010742 L 162.0001068115234 440.0191345214844 C 165.5603332519531 441.0605163574219 169.184326171875 442.0223693847656 172.7998962402344 442.8855895996094 L 172.7998962402344 411.4277648925781 L 172.7998962402344 410.4277648925781 L 173.7998962402344 410.4277648925781 L 276.2001037597656 410.4277648925781 L 277.2001037597656 410.4277648925781 L 277.2001037597656 411.4277648925781 L 277.2001037597656 442.8855895996094 M 172.7998962402344 320.4277648925781 L 173.7998962402344 320.4277648925781 L 276.2001037597656 320.4277648925781 L 277.2001037597656 320.4277648925781 L 277.2001037597656 321.4277648925781 L 277.2001037597656 398.5713195800781 L 277.2001037597656 399.5713195800781 L 276.2001037597656 399.5713195800781 L 173.7998962402344 399.5713195800781 L 172.7998962402344 399.5713195800781 L 172.7998962402344 398.5713195800781 L 172.7998962402344 321.4277648925781 L 172.7998962402344 320.4277648925781 M 172.7998962402344 230.4287261962891 L 173.7998962402344 230.4287261962891 L 276.2001037597656 230.4287261962891 L 277.2001037597656 230.4287261962891 L 277.2001037597656 231.4287261962891 L 277.2001037597656 308.5713195800781 L 277.2001037597656 309.5713195800781 L 276.2001037597656 309.5713195800781 L 173.7998962402344 309.5713195800781 L 172.7998962402344 309.5713195800781 L 172.7998962402344 308.5713195800781 L 172.7998962402344 231.4287261962891 L 172.7998962402344 230.4287261962891 M 172.7998962402344 140.4296112060547 L 173.7998962402344 140.4296112060547 L 276.2001037597656 140.4296112060547 L 277.2001037597656 140.4296112060547 L 277.2001037597656 141.4296112060547 L 277.2001037597656 218.5712738037109 L 277.2001037597656 219.5712738037109 L 276.2001037597656 219.5712738037109 L 173.7998962402344 219.5712738037109 L 172.7998962402344 219.5712738037109 L 172.7998962402344 218.5712738037109 L 172.7998962402344 141.4296112060547 L 172.7998962402344 140.4296112060547 M 172.7998962402344 50.43050003051758 L 173.7998962402344 50.43050003051758 L 276.2001037597656 50.43050003051758 L 277.2001037597656 50.43050003051758 L 277.2001037597656 51.43050003051758 L 277.2001037597656 128.5713348388672 L 277.2001037597656 129.5713348388672 L 276.2001037597656 129.5713348388672 L 173.7998962402344 129.5713348388672 L 172.7998962402344 129.5713348388672 L 172.7998962402344 128.5713348388672 L 172.7998962402344 51.43050003051758 L 172.7998962402344 50.43050003051758 M 276.2001037597656 444.1487121582031 L 276.2001037597656 411.4277648925781 L 173.7998962402344 411.4277648925781 L 173.7998962402344 444.1487121582031 C 169.4794464111328 443.1434020996094 165.2210540771484 442.0175476074219 161.0001068115234 440.7672119140625 L 161.0001068115234 9.232722282409668 C 165.2210540771484 7.982444286346436 169.4786682128906 6.856777667999268 173.7991180419922 5.851444244384766 L 173.7998962402344 38.57311248779297 L 276.2001037597656 38.57311248779297 L 276.2001037597656 5.851277828216553 C 280.5205993652344 6.856611251831055 284.7789306640625 7.982444286346436 288.9998779296875 9.232722282409668 L 288.9998779296875 440.7672119140625 C 284.7789306640625 442.0175476074219 280.5205993652344 443.1434020996094 276.2001037597656 444.1487121582031 Z M 173.7998962402344 321.4277648925781 L 173.7998962402344 398.5713195800781 L 276.2001037597656 398.5713195800781 L 276.2001037597656 321.4277648925781 L 173.7998962402344 321.4277648925781 Z M 173.7998962402344 231.4287261962891 L 173.7998962402344 308.5713195800781 L 276.2001037597656 308.5713195800781 L 276.2001037597656 231.4287261962891 L 173.7998962402344 231.4287261962891 Z M 173.7998962402344 141.4296112060547 L 173.7998962402344 218.5712738037109 L 276.2001037597656 218.5712738037109 L 276.2001037597656 141.4296112060547 L 173.7998962402344 141.4296112060547 Z M 173.7998962402344 51.43050003051758 L 173.7998962402344 128.5713348388672 L 276.2001037597656 128.5713348388672 L 276.2001037597656 51.43050003051758 L 173.7998962402344 51.43050003051758 Z"/>
    </g>
  </g>
</svg>
